<svg xmlns="http://www.w3.org/2000/svg" version="1.1" xmlns:xlink="http://www.w3.org/1999/xlink" xmlns:svgjs="http://svgjs.dev/svgjs" width="1500" height="1500" viewBox="0 0 1500 1500"><rect width="1500" height="1500" fill="#ffffff"></rect><g transform="matrix(0.6666666666666666,0,0,0.6666666666666666,249.39393939393938,681.1473997272919)"><svg viewBox="0 0 396 55" data-background-color="#fafafa" preserveAspectRatio="xMidYMid meet" height="208" width="1500" xmlns="http://www.w3.org/2000/svg" xmlns:xlink="http://www.w3.org/1999/xlink"><g id="tight-bounds" transform="matrix(1,0,0,1,0.2400000000000091,-0.19067537260374934)"><svg viewBox="0 0 395.52 55.38132270634064" height="55.38132270634064" width="395.52"><g><svg viewBox="0 0 795.6291121475002 111.40522" height="55.38132270634064" width="395.52"><g><svg viewBox="0 0 795.6291121475002 111.40522" height="111.40522" width="795.6291121475002"><g id="textblocktransform"><svg viewBox="0 0 795.6291121475002 111.40522" height="111.40522" width="795.6291121475002" id="textblock"><g><svg viewBox="0 0 795.6291121475002 72.9718" height="72.9718" width="795.6291121475002"><g><svg><g></g><g></g></svg></g><g><svg><g><svg></svg></g><g></g></svg></g><g id="text-0"><svg viewBox="0 0 795.6291121475002 72.9718" height="72.9718" width="795.6291121475002"><g transform="matrix(1,0,0,1,0,13.9859)"><svg width="477.3000000000001" viewBox="2.15 -34.5 477.26000000000005 45" height="45" data-palette-color="#130912"><path d="M17.9-26.1L17.9-26.1Q15.75-26.1 14.73-24.85 13.7-23.6 13.7-20.4L13.7-20.4 13.7-14.5 22-14.5 22-20.5Q22-22.6 21.5-23.88 21-25.15 20.13-25.63 19.25-26.1 17.9-26.1ZM22-4.95L22-7.6 13.7-7.6 13.7-4.95Q13.7-2.4 12.35-1.2 11 0 7.7 0L7.7 0Q6.3 0 5.4-0.4 4.5-0.8 3.83-1.75 3.15-2.7 2.83-4.53 2.5-6.35 2.33-8.93 2.15-11.5 2.15-15.45L2.15-15.45Q2.15-18.9 2.88-21.78 3.6-24.65 4.83-26.65 6.05-28.65 7.6-30.18 9.15-31.7 10.98-32.55 12.8-33.4 14.53-33.83 16.25-34.25 18-34.25L18-34.25Q20.1-34.25 22.15-33.68 24.2-33.1 26.3-31.7 28.4-30.3 29.98-28.23 31.55-26.15 32.55-22.85 33.55-19.55 33.55-15.45L33.55-15.45Q33.55-8.85 33.08-5.68 32.6-2.5 31.48-1.25 30.35 0 28 0L28 0Q24.7 0 23.35-1.2 22-2.4 22-4.95L22-4.95ZM48.65-15.4L48.65-5.35Q48.65-2.35 47.4-1.18 46.15 0 42.95 0L42.95 0Q40 0 38.95-1.38 37.9-2.75 37.9-5.9L37.9-5.9 37.9-18.2Q37.9-19.9 38.5-21.18 39.1-22.45 40.25-23.15 41.4-23.85 42.95-23.85L42.95-23.85Q46.75-23.85 47.95-21.65L47.95-21.65Q50.85-23.85 53.55-23.85L53.55-23.85Q58.8-23.85 58.8-18.85L58.8-18.85Q58.8-16.85 57.65-15.6 56.5-14.35 54.65-14.35L54.65-14.35Q53.55-14.35 52.87-14.8 52.2-15.25 51.62-15.7 51.05-16.15 50.3-16.15L50.3-16.15Q49.2-16.15 48.65-15.4L48.65-15.4ZM76.65-11.85L76.65-11.85Q76.65-14.45 76-16.43 75.35-18.4 74.1-18.4L74.1-18.4Q73.25-18.4 72.6-17.4 71.95-16.4 71.65-14.95 71.35-13.5 71.35-11.85L71.35-11.85Q71.35-9.3 72.05-7.38 72.75-5.45 74.05-5.45 75.35-5.45 76-7.35 76.65-9.25 76.65-11.85ZM74.05 0.35L74.05 0.35Q70.15 0.35 67.02-1.05 63.9-2.45 62.02-5.25 60.15-8.05 60.15-11.8L60.15-11.8Q60.15-17.5 64.05-20.85 67.95-24.2 74.05-24.2 80.15-24.2 84-20.85 87.85-17.5 87.85-11.8L87.85-11.8Q87.85-6.15 83.92-2.9 80 0.35 74.05 0.35ZM101.14 0.3L101.14 0.3Q97.19 0.3 94.59-2.93 91.99-6.15 91.99-11.8L91.99-11.8Q91.99-17.5 94.54-20.85 97.09-24.2 101.09-24.2L101.09-24.2Q105.14-24.2 108.59-21.4L108.59-21.4Q109.89-23.85 112.89-23.85L112.89-23.85Q115.59-23.85 117.12-22.65 118.64-21.45 118.64-18.35L118.64-18.35 118.64-9.2Q118.64-4.35 118.02-0.88 117.39 2.6 115.87 5.25 114.34 7.9 111.67 9.2 108.99 10.5 105.09 10.5L105.09 10.5Q102.39 10.5 100.09 9.75 97.79 9 96.44 7.9 95.09 6.8 94.34 5.7 93.59 4.6 93.59 3.8L93.59 3.8Q93.59 2.85 94.14 2.2 94.69 1.55 95.69 1.55L95.69 1.55Q96.29 1.55 98.72 2.85 101.14 4.15 102.64 4.15L102.64 4.15Q107.74 4.15 107.74-1.1L107.74-1.1Q104.84 0.3 101.14 0.3ZM107.94-7.2L107.94-7.2 107.89-16.65Q107.04-18.05 105.74-18.05L105.74-18.05Q104.84-18.05 104.17-17.1 103.49-16.15 103.17-14.75 102.84-13.35 102.84-11.8L102.84-11.8Q102.84-9.45 103.59-7.68 104.34-5.9 105.69-5.9L105.69-5.9Q107.04-5.9 107.94-7.2ZM149.14-14.1L149.14-14.1Q149.14-5.55 148.64-2.15L148.64-2.15Q148.24 0.9 147.39 3.13 146.54 5.35 144.99 7.08 143.44 8.8 141.04 9.65 138.64 10.5 135.34 10.5L135.34 10.5Q132.69 10.5 130.42 9.73 128.14 8.95 126.82 7.83 125.49 6.7 124.74 5.6 123.99 4.5 123.99 3.7 123.99 2.9 124.52 2.23 125.04 1.55 125.94 1.55L125.94 1.55Q126.59 1.55 127.47 1.95 128.34 2.35 129.14 2.85 129.94 3.35 131.04 3.75 132.14 4.15 133.19 4.15L133.19 4.15Q135.89 4.15 137.02 2.8 138.14 1.45 138.14-1.05L138.14-1.05Q137.29-0.7 136.49-0.45 135.69-0.2 134.94-0.05 134.19 0.1 133.52 0.15 132.84 0.2 132.19 0.2L132.19 0.2Q129.24 0.2 127.14-1.45 125.04-3.1 124.12-5.53 123.19-7.95 123.19-10.75L123.19-10.75Q123.19-13.55 123.27-15.5 123.34-17.45 123.59-18.98 123.84-20.5 124.17-21.4 124.49-22.3 125.09-22.88 125.69-23.45 126.44-23.65 127.19-23.85 128.24-23.85L128.24-23.85Q131.39-23.85 132.67-22.78 133.94-21.7 133.94-19.4L133.94-19.4 133.99-11.35Q133.99-10.55 133.99-10.18 133.99-9.8 134.06-9.25 134.14-8.7 134.27-8.45 134.39-8.2 134.62-7.93 134.84-7.65 135.22-7.55 135.59-7.45 136.14-7.45L136.14-7.45Q137.64-7.45 138.02-8.28 138.39-9.1 138.39-11.3L138.39-11.3 138.44-19.4Q138.44-20.95 138.97-21.9 139.49-22.85 140.74-23.35 141.99-23.85 144.14-23.85L144.14-23.85Q145.44-23.85 146.37-23.43 147.29-23 147.84-22.33 148.39-21.65 148.67-20.33 148.94-19 149.04-17.65 149.14-16.3 149.14-14.1ZM162.54 0.3L162.54 0.3Q158.59 0.3 155.99-2.93 153.39-6.15 153.39-11.75L153.39-11.75Q153.39-17.45 155.96-20.83 158.54-24.2 162.54-24.2L162.54-24.2Q166.59-24.2 170.04-21.35L170.04-21.35Q171.39-23.85 174.39-23.85L174.39-23.85Q177.09-23.85 178.59-22.68 180.09-21.5 180.09-18.35L180.09-18.35 180.09-5.35Q180.09-2.35 178.84-1.18 177.59 0 174.44 0L174.44 0Q171.14 0 170.09-1.85L170.09-1.85Q166.89 0.3 162.54 0.3ZM169.34-7.2L169.34-16.55Q168.49-18 167.14-18L167.14-18Q165.84-18 165.04-16.1 164.24-14.2 164.24-11.75L164.24-11.75Q164.24-9.45 164.99-7.65 165.74-5.85 167.09-5.85L167.09-5.85Q168.49-5.85 169.34-7.2L169.34-7.2ZM232.13-28.7L232.13-7.5Q232.13-3.45 230.68-1.73 229.23 0 226.28 0L226.28 0Q223.38 0 222.03-1.58 220.68-3.15 220.68-7.15L220.68-7.15 220.63-12.8 210.43-12.8 210.43-7.5Q210.43-3.4 209.03-1.7 207.63 0 204.58 0L204.58 0Q201.68 0 200.33-1.58 198.98-3.15 198.98-7.15L198.98-7.15 198.83-28.25Q198.83-31.35 200.41-32.8 201.98-34.25 204.58-34.25L204.58-34.25Q207.58-34.25 209.01-33.15 210.43-32.05 210.43-28.7L210.43-28.7 210.43-20.3 220.58-20.3 220.58-28.25Q220.58-30.35 221.36-31.73 222.13-33.1 223.36-33.68 224.58-34.25 226.28-34.25L226.28-34.25Q229.18-34.25 230.66-33.15 232.13-32.05 232.13-28.7L232.13-28.7ZM251.03 0.3L251.03 0.3Q244.93 0.3 240.96-2.85 236.98-6 236.98-11.45L236.98-11.45Q236.98-17.35 240.91-20.78 244.83-24.2 251.03-24.2L251.03-24.2Q256.88-24.2 259.61-22.13 262.33-20.05 262.33-16.45L262.33-16.45Q262.33-15.75 262.16-15.1 261.98-14.45 261.61-13.83 261.23-13.2 260.61-12.68 259.98-12.15 259.18-11.73 258.38-11.3 257.28-11.08 256.18-10.85 254.93-10.85L254.93-10.85 247.88-10.8Q248.38-9.2 249.68-8.28 250.98-7.35 252.98-7.35L252.98-7.35Q255.13-7.35 257.38-7.9L257.38-7.9Q258.33-8.15 259.46-8.7 260.58-9.25 261.08-9.25L261.08-9.25Q261.93-9.25 262.41-8.75 262.88-8.25 262.88-7.5L262.88-7.5Q262.88-6.6 262.08-5.33 261.28-4.05 259.86-2.78 258.43-1.5 256.08-0.6 253.73 0.3 251.03 0.3ZM247.63-14L247.63-14Q251.08-14.05 251.38-14.05L251.38-14.05Q252.13-14.05 252.48-14.95L252.48-14.95Q252.73-15.6 252.73-16.75L252.73-16.75Q252.73-19.9 250.83-19.9L250.83-19.9Q250.13-19.9 249.46-19.15 248.78-18.4 248.28-17.03 247.78-15.65 247.63-14ZM275.98 0.3L275.98 0.3Q272.03 0.3 269.43-2.93 266.83-6.15 266.83-11.75L266.83-11.75Q266.83-17.45 269.4-20.83 271.98-24.2 275.98-24.2L275.98-24.2Q280.03-24.2 283.48-21.35L283.48-21.35Q284.83-23.85 287.83-23.85L287.83-23.85Q290.53-23.85 292.03-22.68 293.53-21.5 293.53-18.35L293.53-18.35 293.53-5.35Q293.53-2.35 292.28-1.18 291.03 0 287.88 0L287.88 0Q284.58 0 283.53-1.85L283.53-1.85Q280.33 0.3 275.98 0.3ZM282.78-7.2L282.78-16.55Q281.93-18 280.58-18L280.58-18Q279.28-18 278.48-16.1 277.68-14.2 277.68-11.75L277.68-11.75Q277.68-9.45 278.43-7.65 279.18-5.85 280.53-5.85L280.53-5.85Q281.93-5.85 282.78-7.2L282.78-7.2ZM309.23-28.7L309.23-7.55Q309.23-3.5 307.88-1.75 306.53 0 303.73 0L303.73 0Q300.93 0 299.63-1.58 298.32-3.15 298.32-7.15L298.32-7.15 298.23-28.25Q298.23-29.55 298.5-30.55 298.78-31.55 299.25-32.25 299.73-32.95 300.43-33.4 301.13-33.85 301.95-34.05 302.78-34.25 303.73-34.25L303.73-34.25Q306.48-34.25 307.85-33.15 309.23-32.05 309.23-28.7L309.23-28.7ZM316.32-10.7L316.32-10.7 316.32-16.6Q315.07-16.65 314.32-17.03 313.57-17.4 313.25-18 312.92-18.6 312.92-19.5L312.92-19.5Q312.92-22.35 316.37-22.6L316.37-22.6 316.37-27.25Q316.37-29.15 319.12-30.68 321.87-32.2 324.57-32.2L324.57-32.2Q326.22-32.2 326.72-31.25 327.22-30.3 327.22-28.4L327.22-28.4 327.27-22.65 328.62-22.65Q331.37-22.65 332.4-21.93 333.42-21.2 333.42-19.3L333.42-19.3Q333.42-18.5 333.12-17.95 332.82-17.4 332.15-17.1 331.47-16.8 330.52-16.68 329.57-16.55 328.17-16.55L328.17-16.55 327.27-16.55 327.27-11.05Q327.27-10.25 327.35-9.73 327.42-9.2 327.57-8.9 327.72-8.6 328-8.5 328.27-8.4 328.67-8.4L328.67-8.4Q329.27-8.4 329.67-8.83 330.07-9.25 330.3-9.78 330.52-10.3 330.9-10.73 331.27-11.15 331.77-11.15L331.77-11.15Q332.92-11.15 333.55-10.6 334.17-10.05 334.17-9.25L334.17-9.25Q334.17-7.9 333.65-6.35 333.12-4.8 332.12-3.35 331.12-1.9 329.35-0.95 327.57 0 325.37 0L325.37 0Q320.42 0 318.37-2.5 316.32-5 316.32-10.7ZM354.57-4.15L354.52-13.4Q354.52-16.25 352.32-16.25L352.32-16.25Q351.92-16.25 351.6-16.15 351.27-16.05 351-15.9 350.72-15.75 350.5-15.48 350.27-15.2 350.1-14.88 349.92-14.55 349.85-14.1 349.77-13.65 349.77-13.1L349.77-13.1 349.77-7.6Q349.77-3.5 348.45-1.78 347.12-0.05 344.42-0.05L344.42-0.05Q341.62-0.05 340.32-1.63 339.02-3.2 339.02-7.2L339.02-7.2 338.92-28.5Q338.92-31.6 340.42-33.05 341.92-34.5 344.42-34.5L344.42-34.5Q347.07-34.5 348.42-33.4 349.77-32.3 349.77-28.95L349.77-28.95 349.77-21.7Q353.47-23.95 358.77-23.95L358.77-23.95Q361.17-23.95 362.62-22.73 364.07-21.5 364.77-18.85 365.47-16.2 365.47-11.9L365.47-11.9Q365.47-9.7 365.4-8.1 365.32-6.5 365.17-5.18 365.02-3.85 364.72-3 364.42-2.15 364.02-1.55 363.62-0.95 363-0.63 362.37-0.3 361.62-0.15 360.87 0 359.82 0L359.82 0Q357.02 0 355.8-1.03 354.57-2.05 354.57-4.15L354.57-4.15ZM384.87-18.7L384.87-18.7Q384.87-19.85 383.57-19.85L383.57-19.85Q382.62-19.85 381.87-18.8 381.12-17.75 380.72-16.18 380.32-14.6 380.32-12.9L380.32-12.9Q380.32-10.4 381.84-8.85 383.37-7.3 385.97-7.3L385.97-7.3Q388.52-7.3 390.37-7.9L390.37-7.9Q391.12-8.1 392.19-8.65 393.27-9.2 393.72-9.2L393.72-9.2Q394.42-9.2 394.87-8.95 395.32-8.7 395.49-8.35 395.67-8 395.67-7.6L395.67-7.6Q395.67-6.9 395.19-5.9 394.72-4.9 393.72-3.8 392.72-2.7 391.39-1.78 390.07-0.85 388.12-0.25 386.17 0.35 384.02 0.35L384.02 0.35Q377.82 0.35 373.82-2.98 369.82-6.3 369.82-12.1L369.82-12.1Q369.82-15.8 371.64-18.57 373.47-21.35 376.67-22.78 379.87-24.2 384.02-24.2L384.02-24.2Q387.97-24.2 390.54-23.28 393.12-22.35 394.22-20.8 395.32-19.25 395.32-17.1L395.32-17.1Q395.32-16.15 394.94-15.15 394.57-14.15 393.79-13.15 393.02-12.15 391.52-11.53 390.02-10.9 388.02-10.9L388.02-10.9Q387.12-10.9 386.54-11 385.97-11.1 385.34-11.43 384.72-11.75 384.42-12.5 384.12-13.25 384.12-14.4L384.12-14.4Q384.12-15.4 384.49-16.82 384.87-18.25 384.87-18.7ZM408.97 0.3L408.97 0.3Q405.02 0.3 402.42-2.93 399.82-6.15 399.82-11.75L399.82-11.75Q399.82-17.45 402.39-20.83 404.97-24.2 408.97-24.2L408.97-24.2Q413.02-24.2 416.47-21.35L416.47-21.35Q417.82-23.85 420.82-23.85L420.82-23.85Q423.52-23.85 425.02-22.68 426.52-21.5 426.52-18.35L426.52-18.35 426.52-5.35Q426.52-2.35 425.27-1.18 424.02 0 420.87 0L420.87 0Q417.57 0 416.52-1.85L416.52-1.85Q413.32 0.3 408.97 0.3ZM415.77-7.2L415.77-16.55Q414.92-18 413.57-18L413.57-18Q412.27-18 411.47-16.1 410.67-14.2 410.67-11.75L410.67-11.75Q410.67-9.45 411.42-7.65 412.17-5.85 413.52-5.85L413.52-5.85Q414.92-5.85 415.77-7.2L415.77-7.2ZM441.96-15.4L441.96-5.35Q441.96-2.35 440.71-1.18 439.46 0 436.26 0L436.26 0Q433.31 0 432.26-1.38 431.21-2.75 431.21-5.9L431.21-5.9 431.21-18.2Q431.21-19.9 431.81-21.18 432.41-22.45 433.56-23.15 434.71-23.85 436.26-23.85L436.26-23.85Q440.06-23.85 441.26-21.65L441.26-21.65Q444.16-23.85 446.86-23.85L446.86-23.85Q452.11-23.85 452.11-18.85L452.11-18.85Q452.11-16.85 450.96-15.6 449.81-14.35 447.96-14.35L447.96-14.35Q446.86-14.35 446.19-14.8 445.51-15.25 444.94-15.7 444.36-16.15 443.61-16.15L443.61-16.15Q442.51-16.15 441.96-15.4L441.96-15.4ZM467.56 0.3L467.56 0.3Q461.46 0.3 457.49-2.85 453.51-6 453.51-11.45L453.51-11.45Q453.51-17.35 457.44-20.78 461.36-24.2 467.56-24.2L467.56-24.2Q473.41-24.2 476.14-22.13 478.86-20.05 478.86-16.45L478.86-16.45Q478.86-15.75 478.69-15.1 478.51-14.45 478.14-13.83 477.76-13.2 477.14-12.68 476.51-12.15 475.71-11.73 474.91-11.3 473.81-11.08 472.71-10.85 471.46-10.85L471.46-10.85 464.41-10.8Q464.91-9.2 466.21-8.28 467.51-7.35 469.51-7.35L469.51-7.35Q471.66-7.35 473.91-7.9L473.91-7.9Q474.86-8.15 475.99-8.7 477.11-9.25 477.61-9.25L477.61-9.25Q478.46-9.25 478.94-8.75 479.41-8.25 479.41-7.5L479.41-7.5Q479.41-6.6 478.61-5.33 477.81-4.05 476.39-2.78 474.96-1.5 472.61-0.6 470.26 0.3 467.56 0.3ZM464.16-14L464.16-14Q467.61-14.05 467.91-14.05L467.91-14.05Q468.66-14.05 469.01-14.95L469.01-14.95Q469.26-15.6 469.26-16.75L469.26-16.75Q469.26-19.9 467.36-19.9L467.36-19.9Q466.66-19.9 465.99-19.15 465.31-18.4 464.81-17.03 464.31-15.65 464.16-14Z" opacity="1" transform="matrix(1,0,0,1,0,0)" fill="#130912" class="undefined-yy-0"></path></svg></g><g><svg xmlns="http://www.w3.org/2000/svg" xmlns:xlink="http://www.w3.org/1999/xlink" version="1.1" x="494.52820000000014" y="0" viewBox="10 10 80.001 80" enable-background="new 0 0 100 100" xml:space="preserve" height="72.9718" width="72.97271214750002" class="icon-cg-0" data-fill-palette-color="accent" id="cg-0"><g fill="#e43720" data-fill-palette-color="accent"><g fill="#e43720" data-fill-palette-color="accent"><path fill="#000000" d="M10 90h40V10H10V90zM44 82.003H34v-10h10V82.003zM44 64H34V54h10V64zM16.001 26.002h10v-10h8v10h10v8H34v10h-8v-10h-10V26.002zM16.001 54h10v10h-10V54zM16.001 72.003h10v10h-10V72.003z" data-fill-palette-color="accent"></path><path fill="#000000" d="M56.001 90h10V70h14v20h10V46.002h-34V90z" data-fill-palette-color="accent"></path><path fill="#000000" d="M56.001 36.002V40h34v-3.999H56.001z" data-fill-palette-color="accent"></path></g></g></svg></g><g transform="matrix(1,0,0,1,584.7291121475001,13.885900000000001)"><svg width="210.90000000000006" viewBox="2.8499999999999996 -34.6 210.88 45" height="45" data-palette-color="#130912"><path d="M36.15-28.7L36.15-7.5Q36.15-3.45 34.7-1.73 33.25 0 30.3 0L30.3 0Q27.4 0 26.05-1.58 24.7-3.15 24.7-7.15L24.7-7.15 24.65-12.8 14.45-12.8 14.45-7.5Q14.45-3.4 13.05-1.7 11.65 0 8.6 0L8.6 0Q5.7 0 4.35-1.58 3-3.15 3-7.15L3-7.15 2.85-28.25Q2.85-31.35 4.42-32.8 6-34.25 8.6-34.25L8.6-34.25Q11.6-34.25 13.03-33.15 14.45-32.05 14.45-28.7L14.45-28.7 14.45-20.3 24.6-20.3 24.6-28.25Q24.6-30.35 25.38-31.73 26.15-33.1 27.38-33.68 28.6-34.25 30.3-34.25L30.3-34.25Q33.2-34.25 34.68-33.15 36.15-32.05 36.15-28.7L36.15-28.7ZM57.45-11.85L57.45-11.85Q57.45-14.45 56.8-16.43 56.15-18.4 54.9-18.4L54.9-18.4Q54.05-18.4 53.4-17.4 52.75-16.4 52.45-14.95 52.15-13.5 52.15-11.85L52.15-11.85Q52.15-9.3 52.85-7.38 53.55-5.45 54.85-5.45 56.15-5.45 56.8-7.35 57.45-9.25 57.45-11.85ZM54.85 0.35L54.85 0.35Q50.95 0.35 47.82-1.05 44.7-2.45 42.82-5.25 40.95-8.05 40.95-11.8L40.95-11.8Q40.95-17.5 44.85-20.85 48.75-24.2 54.85-24.2 60.95-24.2 64.8-20.85 68.65-17.5 68.65-11.8L68.65-11.8Q68.65-6.15 64.72-2.9 60.8 0.35 54.85 0.35ZM84.59-24.2L84.59-24.2Q89.25-24.2 92.34-22.3 95.45-20.4 95.45-18.15L95.45-18.15Q95.45-17.5 94.9-16.95 94.34-16.4 93.5-16.4L93.5-16.4Q92.75-16.4 91.84-16.93 90.95-17.45 90.15-18.05 89.34-18.65 88.05-19.15 86.75-19.65 85.3-19.65L85.3-19.65Q83.34-19.65 83.34-18.45L83.34-18.45Q83.34-17.6 84.34-17.1 85.34-16.6 87.27-16.05 89.2-15.5 90.2-15L90.2-15Q93.95-13.55 95.34-11.88 96.75-10.2 96.75-7.45L96.75-7.45Q96.75-6.1 96-4.78 95.25-3.45 93.75-2.27 92.25-1.1 89.67-0.38 87.09 0.35 83.8 0.35L83.8 0.35Q77.34 0.35 74.14-2.6L74.14-2.6Q72.59-4.05 72.59-5.6L72.59-5.6Q72.59-6.55 73.22-7.1 73.84-7.65 75-7.65L75-7.65Q76.14-7.65 78.5-6.53 80.84-5.4 82.84-5.4L82.84-5.4Q85.59-5.4 85.59-6.75L85.59-6.75Q85.59-7.45 84.15-7.88 82.7-8.3 80.34-8.9 78-9.5 76.59-10.4L76.59-10.4Q74.39-11.35 73.52-12.78 72.64-14.2 72.64-16.25L72.64-16.25Q72.64-19.75 75.97-21.98 79.3-24.2 84.59-24.2ZM111.99-1.4L111.99 2.9Q111.99 6.95 110.64 8.68 109.29 10.4 106.49 10.4L106.49 10.4Q103.69 10.4 102.39 8.83 101.09 7.25 101.09 3.25L101.09 3.25 100.99-17.85Q100.99-20.95 102.49-22.4 103.99-23.85 106.49-23.85L106.49-23.85Q108.44-23.85 109.64-23.38 110.84-22.9 111.44-21.5L111.44-21.5Q114.89-24.2 118.84-24.2L118.84-24.2Q122.84-24.2 125.39-20.85 127.94-17.5 127.94-11.75L127.94-11.75Q127.94-6.15 125.34-2.93 122.74 0.3 118.79 0.3L118.79 0.3Q114.99 0.3 111.99-1.4L111.99-1.4ZM111.99-16.55L111.99-7.25Q112.84-5.85 114.24-5.85L114.24-5.85Q115.59-5.85 116.34-7.65 117.09-9.45 117.09-11.75L117.09-11.75Q117.09-14.2 116.29-16.1 115.49-18 114.19-18L114.19-18Q112.84-18 111.99-16.55L111.99-16.55ZM131.84-30.8L131.84-30.8Q131.84-32.45 133.27-33.52 134.69-34.6 137.29-34.6L137.29-34.6Q142.74-34.6 142.74-30.8L142.74-30.8Q142.74-28.7 141.37-27.85 139.99-27 137.29-27L137.29-27Q134.94-27 133.39-27.9 131.84-28.8 131.84-30.8ZM142.69-18.35L142.69-5.35Q142.69-2.35 141.44-1.18 140.19 0 137.04 0L137.04 0Q134.09 0 133.02-1.38 131.94-2.75 131.94-5.9L131.94-5.9 131.94-18.2Q131.94-20.75 133.32-22.3 134.69-23.85 136.99-23.85L136.99-23.85Q139.69-23.85 141.19-22.68 142.69-21.5 142.69-18.35L142.69-18.35ZM149.74-10.7L149.74-10.7 149.74-16.6Q148.49-16.65 147.74-17.03 146.99-17.4 146.66-18 146.34-18.6 146.34-19.5L146.34-19.5Q146.34-22.35 149.79-22.6L149.79-22.6 149.79-27.25Q149.79-29.15 152.54-30.68 155.29-32.2 157.99-32.2L157.99-32.2Q159.64-32.2 160.14-31.25 160.64-30.3 160.64-28.4L160.64-28.4 160.69-22.65 162.04-22.65Q164.79-22.65 165.81-21.93 166.84-21.2 166.84-19.3L166.84-19.3Q166.84-18.5 166.54-17.95 166.24-17.4 165.56-17.1 164.89-16.8 163.94-16.68 162.99-16.55 161.59-16.55L161.59-16.55 160.69-16.55 160.69-11.05Q160.69-10.25 160.76-9.73 160.84-9.2 160.99-8.9 161.14-8.6 161.41-8.5 161.69-8.4 162.09-8.4L162.09-8.4Q162.69-8.4 163.09-8.83 163.49-9.25 163.71-9.78 163.94-10.3 164.31-10.73 164.69-11.15 165.19-11.15L165.19-11.15Q166.34-11.15 166.96-10.6 167.59-10.05 167.59-9.25L167.59-9.25Q167.59-7.9 167.06-6.35 166.54-4.8 165.54-3.35 164.54-1.9 162.76-0.95 160.99 0 158.79 0L158.79 0Q153.84 0 151.79-2.5 149.74-5 149.74-10.7ZM180.49 0.3L180.49 0.3Q176.54 0.3 173.94-2.93 171.34-6.15 171.34-11.75L171.34-11.75Q171.34-17.45 173.91-20.83 176.49-24.2 180.49-24.2L180.49-24.2Q184.54-24.2 187.99-21.35L187.99-21.35Q189.34-23.85 192.34-23.85L192.34-23.85Q195.04-23.85 196.54-22.68 198.04-21.5 198.04-18.35L198.04-18.35 198.04-5.35Q198.04-2.35 196.79-1.18 195.54 0 192.39 0L192.39 0Q189.09 0 188.04-1.85L188.04-1.85Q184.84 0.3 180.49 0.3ZM187.29-7.2L187.29-16.55Q186.44-18 185.09-18L185.09-18Q183.79-18 182.99-16.1 182.19-14.2 182.19-11.75L182.19-11.75Q182.19-9.45 182.94-7.65 183.69-5.85 185.04-5.85L185.04-5.85Q186.44-5.85 187.29-7.2L187.29-7.2ZM213.73-28.7L213.73-7.55Q213.73-3.5 212.38-1.75 211.03 0 208.23 0L208.23 0Q205.43 0 204.13-1.58 202.83-3.15 202.83-7.15L202.83-7.15 202.73-28.25Q202.73-29.55 203.01-30.55 203.28-31.55 203.76-32.25 204.23-32.95 204.93-33.4 205.63-33.85 206.46-34.05 207.28-34.25 208.23-34.25L208.23-34.25Q210.98-34.25 212.36-33.15 213.73-32.05 213.73-28.7L213.73-28.7Z" opacity="1" transform="matrix(1,0,0,1,0,0)" fill="#130912" class="undefined-yy-1"></path></svg></g></svg></g></svg></g><g transform="matrix(1,0,0,1,279.3080097402389,83.59522)"><svg viewBox="0 0 237.01309266702245 27.81" height="27.81" width="237.01309266702245"><g transform="matrix(1,0,0,1,0,0)"><svg width="237.01309266702245" viewBox="4.492881972229998 -36.25 396.72336802777 46.554253402765" height="27.81" data-palette-color="#130912"><path d="M4.9-2.35L4.9-2.35Q4.9-2.85 4.55-17.1L4.55-17.1Q4.35-26.95 4.85-33.1L4.85-33.1Q4.95-34.15 5.73-34.8 6.5-35.45 7.55-35.4L7.55-35.4Q8.05-35.35 8.5-35.1L8.5-35.1Q14.35-36.3 19.05-35.65L19.05-35.65Q27.3-34.5 29.75-28.15L29.75-28.15Q30.7-25.1 30.48-23.18 30.25-21.25 29.33-19.73 28.4-18.2 26.98-17.25 25.55-16.3 24.1-15.73 22.65-15.15 21-14.85L21-14.85Q15.9-13.8 9.65-14.5L9.65-14.5Q9.9-4.9 9.9-2.35L9.9-2.35Q9.9-1.3 9.18-0.58 8.45 0.15 7.4 0.15 6.35 0.15 5.63-0.58 4.9-1.3 4.9-2.35L4.9-2.35ZM9.55-19.45L9.55-19.45Q9.85-19.5 10.2-19.5L10.2-19.5Q15.65-18.85 20-19.75L20-19.75Q25.15-20.8 25.5-23.75L25.5-23.75Q25.6-24.45 25.05-26.35L25.05-26.35Q23.7-29.95 18.4-30.7L18.4-30.7Q14.6-31.2 9.7-30.25L9.7-30.25Q9.45-25.85 9.55-19.45L9.55-19.45ZM46.6-0.8L46.6-0.8Q44.8-0.1 42.52 0 40.25 0.1 38.3-0.53 36.35-1.15 34.85-2.45L34.85-2.45Q32.25-4.6 31.5-7.8 30.75-11 31.45-13.55 32.15-16.1 33.57-18.53 35-20.95 36.67-22.63 38.35-24.3 40.55-25.45 42.75-26.6 45.15-26.58 47.55-26.55 50.2-25.25L50.2-25.25Q50.6-25.05 51.07-24.65 51.55-24.25 51.9-23.95L51.9-23.95 52.55-23.3Q52.85-23 52.85-22.95L52.85-22.95Q53.65-22.25 53.7-21.15L53.7-21.15Q54.35-18.15 54.55-14.85 54.75-11.55 54.67-8.65 54.6-5.75 54.75-2.5L54.75-2.5Q54.8-1.5 54.1-0.75 53.4 0 52.35 0.05 51.3 0.1 50.55-0.6 49.8-1.3 49.75-2.3L49.75-2.3 49.75-3.05Q48.25-1.5 46.6-0.8L46.6-0.8ZM44.35-5.3L44.35-5.3Q45.1-5.5 45.55-5.7 46-5.9 46.67-6.3 47.35-6.7 48.1-7.3 48.85-7.9 49.45-8.8L49.45-8.8Q49.55-8.9 49.7-9L49.7-9Q49.7-15.75 48.85-19.85L48.85-19.85Q48.7-20.05 48.52-20.23 48.35-20.4 48.27-20.5 48.2-20.6 48.07-20.68 47.95-20.75 47.8-20.85L47.8-20.85Q45.4-22.15 42.75-20.93 40.1-19.7 38.1-16.35L38.1-16.35Q36.1-12.95 36.12-10.43 36.15-7.9 38.05-6.25L38.05-6.25Q39.2-5.3 40.9-5.05 42.6-4.8 44.35-5.3L44.35-5.3ZM66.34 0L66.34 0Q62.65-0.65 61-3L61-3Q60.2-4.05 59.85-5.8L59.85-5.8 59.65-6.9Q59.55-7.4 59.45-7.7L59.45-7.7Q59.15-8.65 59.65-9.55 60.15-10.45 61.15-10.7 62.15-10.95 63.05-10.5 63.95-10.05 64.25-9.05L64.25-9.05Q64.4-8.5 64.55-7.8L64.55-7.8Q64.59-7.55 64.62-7.33 64.65-7.1 64.8-6.55L64.8-6.55Q64.95-5.9 65.5-5.45L65.5-5.45Q66.09-4.9 67.3-4.75L67.3-4.75Q69.3-4.35 71.59-4.85L71.59-4.85Q73.84-5.35 75.09-6.3L75.09-6.3Q76-7.1 75.84-7.95L75.84-7.95Q75.7-9.35 74.09-10.05L74.09-10.05Q73.09-10.5 68.9-11.25L68.9-11.25Q64.55-12.1 62.75-13.45L62.75-13.45Q59.45-15.9 60.6-20.75L60.6-20.75Q61.3-23.55 63.47-24.88 65.65-26.2 68.3-26.35L68.3-26.35Q70.55-26.45 72.87-25.83 75.2-25.2 76.84-24.1L76.84-24.1Q77.4-23.7 78-23.15 78.59-22.6 79.17-21.95 79.75-21.3 79.84-21.25L79.84-21.25Q80.59-20.5 80.59-19.53 80.59-18.55 79.87-17.82 79.15-17.1 78.12-17.1 77.09-17.1 76.34-17.8L76.34-17.8Q75.84-18.25 75.34-18.75L75.34-18.75 74.65-19.6Q74.34-19.85 73.95-20.1L73.95-20.1Q73-20.7 71.5-21.13 70-21.55 68.55-21.5L68.55-21.5Q65.9-21.35 65.5-19.65L65.5-19.65Q65.05-17.85 65.8-17.3L65.8-17.3Q66.7-16.65 69.84-16L69.84-16Q74.5-15.2 76.2-14.45L76.2-14.45Q80.3-12.6 80.84-8.5L80.84-8.5Q81.3-5.15 78.34-2.7L78.34-2.7Q76.09-0.85 72.65-0.15L72.65-0.15Q69.34 0.6 66.34 0L66.34 0ZM91.09 0L91.09 0Q87.39-0.65 85.74-3L85.74-3Q84.94-4.05 84.59-5.8L84.59-5.8 84.39-6.9Q84.29-7.4 84.19-7.7L84.19-7.7Q83.89-8.65 84.39-9.55 84.89-10.45 85.89-10.7 86.89-10.95 87.79-10.5 88.69-10.05 88.99-9.05L88.99-9.05Q89.14-8.5 89.29-7.8L89.29-7.8Q89.34-7.55 89.37-7.33 89.39-7.1 89.54-6.55L89.54-6.55Q89.69-5.9 90.24-5.45L90.24-5.45Q90.84-4.9 92.04-4.75L92.04-4.75Q94.04-4.35 96.34-4.85L96.34-4.85Q98.59-5.35 99.84-6.3L99.84-6.3Q100.74-7.1 100.59-7.95L100.59-7.95Q100.44-9.35 98.84-10.05L98.84-10.05Q97.84-10.5 93.64-11.25L93.64-11.25Q89.29-12.1 87.49-13.45L87.49-13.45Q84.19-15.9 85.34-20.75L85.34-20.75Q86.04-23.55 88.22-24.88 90.39-26.2 93.04-26.35L93.04-26.35Q95.29-26.45 97.62-25.83 99.94-25.2 101.59-24.1L101.59-24.1Q102.14-23.7 102.74-23.15 103.34-22.6 103.92-21.95 104.49-21.3 104.59-21.25L104.59-21.25Q105.34-20.5 105.34-19.53 105.34-18.55 104.62-17.82 103.89-17.1 102.87-17.1 101.84-17.1 101.09-17.8L101.09-17.8Q100.59-18.25 100.09-18.75L100.09-18.75 99.39-19.6Q99.09-19.85 98.69-20.1L98.69-20.1Q97.74-20.7 96.24-21.13 94.74-21.55 93.29-21.5L93.29-21.5Q90.64-21.35 90.24-19.65L90.24-19.65Q89.79-17.85 90.54-17.3L90.54-17.3Q91.44-16.65 94.59-16L94.59-16Q99.24-15.2 100.94-14.45L100.94-14.45Q105.04-12.6 105.59-8.5L105.59-8.5Q106.04-5.15 103.09-2.7L103.09-2.7Q100.84-0.85 97.39-0.15L97.39-0.15Q94.09 0.6 91.09 0L91.09 0ZM110.54-2.4L110.54-2.4Q110.44-6.15 110.57-13.9 110.69-21.65 110.69-24.05L110.69-24.05Q110.69-25.1 111.42-25.83 112.14-26.55 113.19-26.55 114.24-26.55 114.97-25.83 115.69-25.1 115.69-24.05L115.69-24.05Q115.69-21.65 115.57-13.95 115.44-6.25 115.54-2.5L115.54-2.5Q115.54-1.45 114.84-0.7 114.14 0.05 113.09 0.05 112.04 0.05 111.29-0.65 110.54-1.35 110.54-2.4L110.54-2.4ZM115.19-35.2L115.19-35.2Q116.04-34.35 116.04-33.1 116.04-31.85 115.19-31 114.34-30.15 113.09-30.15 111.84-30.15 110.99-31 110.14-31.85 110.14-33.1 110.14-34.35 110.99-35.2 111.84-36.05 113.12-36.08 114.39-36.1 115.19-35.2L115.19-35.2ZM135.79-0.35L135.79-0.35Q129.19 1.25 125.24-3L125.24-3Q122.09-6.25 121.34-11.35L121.34-11.35Q120.79-15.35 122.29-18.95L122.29-18.95Q124.09-23.55 127.99-25.75L127.99-25.75Q128.79-26.2 129.99-26.4L129.99-26.4Q130.04-26.4 130.69-26.45L130.69-26.45Q130.94-26.5 131.09-26.55L131.09-26.55Q131.84-26.7 132.59-26.4L132.59-26.4Q132.79-26.4 133.54-26.38 134.29-26.35 134.54-26.33 134.79-26.3 135.41-26.23 136.04-26.15 136.44-26.05L136.44-26.05 137.39-25.7Q137.99-25.5 138.54-25.2 139.09-24.9 139.74-24.5L139.74-24.5Q142.99-22.3 144.24-18.32 145.49-14.35 144.89-11.9L144.89-11.9Q144.44-9.2 143.29-6.88 142.14-4.55 140.11-2.75 138.09-0.95 135.79-0.35L135.79-0.35ZM134.24-5.55L134.24-5.55Q136.39-5.85 137.91-7.78 139.44-9.7 139.91-11.85 140.39-14 139.56-16.57 138.74-19.15 136.94-20.3L136.94-20.3Q136.39-20.7 136.04-20.88 135.69-21.05 135.21-21.18 134.74-21.3 134.46-21.3 134.19-21.3 133.29-21.35 132.39-21.4 131.69-21.45L131.69-21.45Q131.54-21.45 131.34-21.5L131.34-21.5Q130.79-21.45 130.74-21.45L130.74-21.45 130.39-21.35Q128.19-20.15 127.01-17.53 125.84-14.9 126.34-12.1L126.34-12.1Q126.89-8.7 128.79-6.95L128.79-6.95Q130.84-5.05 134.24-5.55L134.24-5.55ZM153.24 0L153.24 0Q152.24 0 151.49-0.68 150.74-1.35 150.74-2.5L150.74-2.5Q150.74-6.45 150.69-9.3L150.69-9.3Q150.59-17.8 150.59-24.05L150.59-24.05Q150.59-25.2 151.28-25.85 151.99-26.5 152.99-26.5L152.99-26.5Q154.03-26.5 154.81-25.83 155.59-25.15 155.59-23.95L155.59-23.95 155.59-22.4Q158.69-26.45 163.74-26.45L163.74-26.45Q168.09-26.45 170.41-23.4 172.74-20.35 172.74-15.2L172.74-15.2Q172.74-9.5 172.59-7.7L172.59-7.7 172.34-4.35 172.19-2.2Q172.09-1.2 171.39-0.6 170.69 0 169.74 0L169.74 0Q168.74 0 167.99-0.68 167.24-1.35 167.24-2.5L167.24-2.5Q167.24-3.3 167.59-8.05L167.59-8.05Q167.84-11.3 167.84-13.15L167.84-13.15Q167.84-17.4 166.64-19.43 165.44-21.45 162.94-21.45L162.94-21.45Q161.14-21.45 159.21-20.35 157.28-19.25 155.59-17.55L155.59-17.55 155.69-10.45 155.74-2.5Q155.74-1.35 154.99-0.68 154.24 0 153.24 0L153.24 0ZM195.68 0L195.68 0Q194.78 0 194.13-0.55 193.48-1.1 193.38-2.15L193.38-2.15Q192.58-8.7 192.48-17.15L192.48-17.15 192.43-20.9 192.03-20.9Q190.78-20.9 190.11-21.63 189.43-22.35 189.43-23.45L189.43-23.45Q189.43-24.45 190.03-25.23 190.63-26 191.73-26L191.73-26 192.63-26Q192.63-28.95 193.51-31.68 194.38-34.4 196.08-35.35L196.08-35.35Q197.78-36.25 199.28-36.25L199.28-36.25Q201.38-36.25 202.63-35.5 203.88-34.75 203.88-33.35L203.88-33.35Q203.88-32.2 203.33-31.5 202.78-30.8 201.78-30.8L201.78-30.8Q201.48-30.8 201.21-30.85 200.93-30.9 200.68-30.95L200.68-30.95Q199.98-31.15 199.23-31.15L199.23-31.15Q198.38-31.15 198.08-29.78 197.78-28.4 197.63-26L197.63-26 199.78-26Q200.93-26 201.61-25.25 202.28-24.5 202.28-23.5L202.28-23.5Q202.28-22.5 201.61-21.75 200.93-21 199.78-21L199.78-21 197.43-21 197.48-17.2Q197.93-6.1 198.28-3.05L198.28-3.05Q198.43-1.4 197.63-0.7 196.83 0 195.68 0L195.68 0ZM219.43-0.35L219.43-0.35Q212.83 1.25 208.88-3L208.88-3Q205.73-6.25 204.98-11.35L204.98-11.35Q204.43-15.35 205.93-18.95L205.93-18.95Q207.73-23.55 211.63-25.75L211.63-25.75Q212.43-26.2 213.63-26.4L213.63-26.4Q213.68-26.4 214.33-26.45L214.33-26.45Q214.58-26.5 214.73-26.55L214.73-26.55Q215.48-26.7 216.23-26.4L216.23-26.4Q216.43-26.4 217.18-26.38 217.93-26.35 218.18-26.33 218.43-26.3 219.05-26.23 219.68-26.15 220.08-26.05L220.08-26.05 221.03-25.7Q221.63-25.5 222.18-25.2 222.73-24.9 223.38-24.5L223.38-24.5Q226.63-22.3 227.88-18.32 229.13-14.35 228.53-11.9L228.53-11.9Q228.08-9.2 226.93-6.88 225.78-4.55 223.75-2.75 221.73-0.95 219.43-0.35L219.43-0.35ZM217.88-5.55L217.88-5.55Q220.03-5.85 221.55-7.78 223.08-9.7 223.55-11.85 224.03-14 223.2-16.57 222.38-19.15 220.58-20.3L220.58-20.3Q220.03-20.7 219.68-20.88 219.33-21.05 218.85-21.18 218.38-21.3 218.1-21.3 217.83-21.3 216.93-21.35 216.03-21.4 215.33-21.45L215.33-21.45Q215.18-21.45 214.98-21.5L214.98-21.5Q214.43-21.45 214.38-21.45L214.38-21.45 214.03-21.35Q211.83-20.15 210.65-17.53 209.48-14.9 209.98-12.1L209.98-12.1Q210.53-8.7 212.43-6.95L212.43-6.95Q214.48-5.05 217.88-5.55L217.88-5.55ZM236.88 0L236.88 0Q235.88 0 235.13-0.68 234.38-1.35 234.38-2.5L234.38-2.5 234.28-12.7Q234.23-16.15 234.23-21.3L234.23-21.3 234.23-24.25Q234.23-25.4 234.93-26.05 235.63-26.7 236.63-26.7L236.63-26.7Q237.68-26.7 238.45-26.03 239.23-25.35 239.23-24.15L239.23-24.15 239.23-22.65Q239.78-23.85 241.28-24.7L241.28-24.7Q243.33-25.95 245.78-25.95L245.78-25.95Q247.63-25.95 248.63-25.35 249.63-24.75 249.63-23.2L249.63-23.2Q249.63-22.2 249.03-21.53 248.43-20.85 247.28-20.85L247.28-20.85Q243.08-20.85 241.48-19.7L241.48-19.7Q240.58-19.1 239.9-18.25 239.23-17.4 239.23-16.6L239.23-16.6 239.33-10.35 239.38-2.5Q239.38-1.35 238.63-0.68 237.88 0 236.88 0L236.88 0ZM277.52 0.1L277.52 0.1Q274.67 0.15 271.95-0.9 269.22-1.95 267.47-3.95L267.47-3.95Q265.67-6.05 265.1-8.97 264.52-11.9 265.05-14.55 265.57-17.2 266.82-19.65L266.82-19.65Q267.82-21.5 269.22-22.98 270.62-24.45 272.5-25.48 274.37-26.5 276.5-26.58 278.62-26.65 281.07-25.65L281.07-25.65Q282.37-25.05 283.72-23.75L283.72-23.75 285.32-22.15Q286.12-21.5 286.22-20.45 286.32-19.4 285.65-18.63 284.97-17.85 283.92-17.75 282.87-17.65 282.12-18.35L282.12-18.35Q281.67-18.7 281.07-19.3L281.07-19.3 280.22-20.15Q279.52-20.85 279.07-21.05L279.07-21.05Q276.82-22.05 274.77-21.03 272.72-20 271.27-17.3L271.27-17.3Q269.77-14.5 269.8-11.7 269.82-8.9 271.27-7.25L271.27-7.25Q272.17-6.2 273.87-5.55 275.57-4.9 277.47-4.9L277.47-4.9Q281.32-5 282.42-7.65L282.42-7.65 282.37-7.9 282.37-9.35Q282.42-10.4 283.2-11.08 283.97-11.75 285.02-11.7 286.07-11.65 286.75-10.88 287.42-10.1 287.37-9.05L287.37-9.05 287.37-7.95Q287.42-6.7 287.02-5.75L287.02-5.75Q285.87-2.85 283.25-1.4 280.62 0.05 277.52 0.1L277.52 0.1ZM306.27-0.8L306.27-0.8Q304.47-0.1 302.19 0 299.92 0.1 297.97-0.53 296.02-1.15 294.52-2.45L294.52-2.45Q291.92-4.6 291.17-7.8 290.42-11 291.12-13.55 291.82-16.1 293.24-18.53 294.67-20.95 296.34-22.63 298.02-24.3 300.22-25.45 302.42-26.6 304.82-26.58 307.22-26.55 309.87-25.25L309.87-25.25Q310.27-25.05 310.74-24.65 311.22-24.25 311.57-23.95L311.57-23.95 312.22-23.3Q312.52-23 312.52-22.95L312.52-22.95Q313.32-22.25 313.37-21.15L313.37-21.15Q314.02-18.15 314.22-14.85 314.42-11.55 314.34-8.65 314.27-5.75 314.42-2.5L314.42-2.5Q314.47-1.5 313.77-0.75 313.07 0 312.02 0.05 310.97 0.1 310.22-0.6 309.47-1.3 309.42-2.3L309.42-2.3 309.42-3.05Q307.92-1.5 306.27-0.8L306.27-0.8ZM304.02-5.3L304.02-5.3Q304.77-5.5 305.22-5.7 305.67-5.9 306.34-6.3 307.02-6.7 307.77-7.3 308.52-7.9 309.12-8.8L309.12-8.8Q309.22-8.9 309.37-9L309.37-9Q309.37-15.75 308.52-19.85L308.52-19.85Q308.37-20.05 308.19-20.23 308.02-20.4 307.94-20.5 307.87-20.6 307.74-20.68 307.62-20.75 307.47-20.85L307.47-20.85Q305.07-22.15 302.42-20.93 299.77-19.7 297.77-16.35L297.77-16.35Q295.77-12.95 295.79-10.43 295.82-7.9 297.72-6.25L297.72-6.25Q298.87-5.3 300.57-5.05 302.27-4.8 304.02-5.3L304.02-5.3ZM323.32 0L323.32 0Q322.32 0 321.57-0.68 320.82-1.35 320.82-2.5L320.82-2.5 320.72-12.7Q320.67-16.15 320.67-21.3L320.67-21.3 320.67-24.25Q320.67-25.4 321.37-26.05 322.07-26.7 323.07-26.7L323.07-26.7Q324.12-26.7 324.89-26.03 325.67-25.35 325.67-24.15L325.67-24.15 325.67-22.65Q326.22-23.85 327.72-24.7L327.72-24.7Q329.77-25.95 332.22-25.95L332.22-25.95Q334.07-25.95 335.07-25.35 336.07-24.75 336.07-23.2L336.07-23.2Q336.07-22.2 335.47-21.53 334.87-20.85 333.72-20.85L333.72-20.85Q329.52-20.85 327.92-19.7L327.92-19.7Q327.02-19.1 326.34-18.25 325.67-17.4 325.67-16.6L325.67-16.6 325.77-10.35 325.82-2.5Q325.82-1.35 325.07-0.68 324.32 0 323.32 0L323.32 0ZM338.76-2.4L338.76-2.4Q338.66-6.15 338.79-13.9 338.91-21.65 338.91-24.05L338.91-24.05Q338.91-25.1 339.64-25.83 340.36-26.55 341.41-26.55 342.46-26.55 343.19-25.83 343.91-25.1 343.91-24.05L343.91-24.05Q343.91-21.65 343.79-13.95 343.66-6.25 343.76-2.5L343.76-2.5Q343.76-1.45 343.06-0.7 342.36 0.05 341.31 0.05 340.26 0.05 339.51-0.65 338.76-1.35 338.76-2.4L338.76-2.4ZM343.41-35.2L343.41-35.2Q344.26-34.35 344.26-33.1 344.26-31.85 343.41-31 342.56-30.15 341.31-30.15 340.06-30.15 339.21-31 338.36-31.85 338.36-33.1 338.36-34.35 339.21-35.2 340.06-36.05 341.34-36.08 342.61-36.1 343.41-35.2L343.41-35.2ZM353.06 0L353.06 0Q352.06 0 351.31-0.68 350.56-1.35 350.56-2.5L350.56-2.5Q350.56-6.45 350.51-9.3L350.51-9.3Q350.41-17.8 350.41-24.05L350.41-24.05Q350.41-25.2 351.11-25.85 351.81-26.5 352.81-26.5L352.81-26.5Q353.86-26.5 354.64-25.83 355.41-25.15 355.41-23.95L355.41-23.95 355.41-22.4Q358.51-26.45 363.56-26.45L363.56-26.45Q367.91-26.45 370.24-23.4 372.56-20.35 372.56-15.2L372.56-15.2Q372.56-9.5 372.41-7.7L372.41-7.7 372.16-4.35 372.01-2.2Q371.91-1.2 371.21-0.6 370.51 0 369.56 0L369.56 0Q368.56 0 367.81-0.68 367.06-1.35 367.06-2.5L367.06-2.5Q367.06-3.3 367.41-8.05L367.41-8.05Q367.66-11.3 367.66-13.15L367.66-13.15Q367.66-17.4 366.46-19.43 365.26-21.45 362.76-21.45L362.76-21.45Q360.96-21.45 359.04-20.35 357.11-19.25 355.41-17.55L355.41-17.55 355.51-10.45 355.56-2.5Q355.56-1.35 354.81-0.68 354.06 0 353.06 0L353.06 0ZM389.96 10.25L389.96 10.25Q387.06 10.5 384.38 9.6 381.71 8.7 379.96 6.45L379.96 6.45Q379.31 5.6 378.88 4.35 378.46 3.1 378.96 2.18 379.46 1.25 380.43 0.95 381.41 0.65 382.33 1.15 383.26 1.65 383.56 2.6L383.56 2.6Q383.66 3 383.81 3.68 383.96 4.35 384.91 5L384.91 5Q387.16 5.8 389.86 5.7L389.86 5.7Q392.31 5.6 393.61 4.67 394.91 3.75 395.26 2.55L395.26 2.55Q395.76 0.85 396.06-2.85L396.06-2.85Q394.16-0.85 390.31-0.45L390.31-0.45Q387.01-0.3 384.38-1.38 381.76-2.45 380.23-4.45 378.71-6.45 378.01-8.9L378.01-8.9Q377.31-11.25 377.51-14.8L377.51-14.8Q377.91-20.3 381.81-23.65L381.81-23.65Q386.16-27.1 392.31-26.1L392.31-26.1Q394.56-25.35 395.86-24.3L395.86-24.3Q395.91-26.3 397.76-26.75L397.76-26.75Q398.96-26.85 399.68-26.2 400.41-25.55 400.56-24.55L400.56-24.55Q401.11-18.45 401.21-9.65L401.21-9.65Q401.26-4.65 400.91-1.3L400.91-1.3Q400.51 3.7 398.56 6.18 396.61 8.65 394.66 9.33 392.71 10 389.96 10.25L389.96 10.25ZM389.96-5.55L389.96-5.55Q391.81-5.5 392.81-6L392.81-6Q395.71-6.9 396.16-10.75L396.16-10.75Q396.41-13.7 395.91-16.4L395.91-16.4Q395.56-18.1 393.86-19.35L393.86-19.35Q392.86-20.15 391.31-20.4L391.31-20.4Q387.31-21.1 385.16-19.2L385.16-19.2Q383.11-17.55 382.81-14.35L382.81-14.35Q382.56-10.15 384.46-7.8L384.46-7.8Q386.41-5.5 389.96-5.55L389.96-5.55Z" opacity="1" transform="matrix(1,0,0,1,0,0)" fill="#000000" class="slogan-text-1" data-fill-palette-color="secondary" id="text-1"></path></svg></g></svg></g></svg></g></svg></g></svg></g><defs></defs></svg><rect width="395.52" height="55.38132270634064" fill="none" stroke="none" visibility="hidden"></rect></g></svg></g></svg>